# xmcd CD database file
#
# Track frame offsets:
#	150
#	18915
#	31925
#	46107
#	58226
#	74199
#	88532
#	101623
#	116011
#	130201
#	144283
#	160038
#
# Disc length: 2337 seconds
#
# Revision: 1
# Processed by: cddbd v1.5.2PL0 Copyright (c) Steve Scherf et al.
# Submitted via: CDex 2.21
#
DISCID=9f091f0c
DTITLE=Joe Diffie, Sammy Kershaw, Aaron Tippin - All In the Same Boat
DYEAR=2013
DGENRE=Country
TTITLE0=All In the Same Boat
TTITLE1=Kiss This
TTITLE2=Heart of Gold
TTITLE3=She Don't Know She's Beautiful
TTITLE4=The Way You Look Tonight
TTITLE5=On and On
TTITLE6=The Route That I Took
TTITLE7=I'm Hangin' On
TTITLE8=Misery Loves Country
TTITLE9=I Love to Work
TTITLE10=He Believed
TTITLE11=Old Friends
EXTD=YEAR: 2013
EXTT0=
EXTT1=
EXTT2=
EXTT3=
EXTT4=
EXTT5=
EXTT6=
EXTT7=
EXTT8=
EXTT9=
EXTT10=
EXTT11=
PLAYORDER=
